<svg xmlns="http://www.w3.org/2000/svg" xmlns:xlink="http://www.w3.org/1999/xlink" width="120" zoomAndPan="magnify" viewBox="0 0 90 30.000001" height="40" preserveAspectRatio="xMidYMid meet" version="1.0"><defs><clipPath id="364160154d"><path d="M 84 12 L 88.546875 12 L 88.546875 21 L 84 21 Z M 84 12 " clip-rule="nonzero"/></clipPath><clipPath id="0128f9f61a"><path d="M 1.453125 6.167969 L 17 6.167969 L 17 22.859375 L 1.453125 22.859375 Z M 1.453125 6.167969 " clip-rule="nonzero"/></clipPath></defs><path fill="#ffffff" d="M 24.253906 20.394531 L 22.75 20.394531 L 22.75 9.734375 L 24.199219 9.734375 L 24.199219 13.464844 C 24.703125 12.878906 25.621094 12.347656 26.765625 12.347656 C 28.472656 12.347656 29.59375 13.453125 29.59375 15.257812 L 29.59375 20.394531 L 28.09375 20.394531 L 28.09375 15.707031 C 28.09375 14.175781 27.191406 13.671875 26.195312 13.671875 C 25.347656 13.671875 24.253906 14.3125 24.253906 15.570312 Z M 24.253906 20.394531 " fill-opacity="1" fill-rule="nonzero"/><path fill="#ffffff" d="M 40.839844 16.472656 C 40.839844 18.824219 38.9375 20.789062 36.355469 20.789062 C 33.773438 20.789062 31.886719 18.824219 31.886719 16.472656 C 31.886719 14.121094 33.785156 12.15625 36.355469 12.15625 C 38.925781 12.15625 40.839844 14.121094 40.839844 16.472656 Z M 33.472656 16.472656 C 33.472656 18.113281 34.691406 19.492188 36.355469 19.492188 C 38.023438 19.492188 39.253906 18.097656 39.253906 16.472656 C 39.253906 14.847656 38.035156 13.453125 36.355469 13.453125 C 34.675781 13.453125 33.472656 14.832031 33.472656 16.472656 Z M 33.472656 16.472656 " fill-opacity="1" fill-rule="nonzero"/><path fill="#ffffff" d="M 47.261719 12.660156 L 47.261719 14.042969 C 46.699219 13.726562 46.125 13.578125 45.660156 13.578125 C 44.9375 13.578125 44.5 13.878906 44.5 14.367188 C 44.5 14.722656 44.867188 15.039062 45.785156 15.613281 C 47.640625 16.800781 48.121094 17.523438 48.121094 18.410156 C 48.121094 19.75 47.042969 20.613281 45.347656 20.625 C 44.652344 20.625 43.707031 20.367188 43.066406 20.066406 L 43.066406 18.683594 C 43.855469 19.109375 44.664062 19.339844 45.171875 19.339844 C 46.113281 19.328125 46.539062 18.90625 46.539062 18.410156 C 46.539062 18.109375 46.359375 17.714844 44.910156 16.828125 C 43.3125 15.789062 42.917969 15.269531 42.917969 14.273438 C 42.917969 13.355469 43.695312 12.289062 45.554688 12.304688 C 46.210938 12.304688 46.796875 12.453125 47.261719 12.660156 Z M 47.261719 12.660156 " fill-opacity="1" fill-rule="nonzero"/><path fill="#ffffff" d="M 52.300781 13.835938 L 52.300781 20.394531 L 50.800781 20.394531 L 50.800781 13.835938 L 49.773438 13.835938 L 49.773438 12.550781 L 50.800781 12.550781 L 50.800781 10.652344 L 52.300781 10.242188 L 52.300781 12.550781 L 53.339844 12.550781 L 53.339844 13.835938 Z M 52.300781 13.835938 " fill-opacity="1" fill-rule="nonzero"/><path fill="#ffffff" d="M 57.082031 11.363281 L 55.523438 11.363281 L 55.523438 9.734375 L 57.082031 9.734375 Z M 57.054688 20.394531 L 55.554688 20.394531 L 55.554688 12.550781 L 57.054688 12.550781 Z M 57.054688 20.394531 " fill-opacity="1" fill-rule="nonzero"/><path fill="#ffffff" d="M 61.210938 20.394531 L 59.707031 20.394531 L 59.707031 12.550781 L 61.15625 12.550781 L 61.15625 13.464844 C 61.660156 12.878906 62.578125 12.347656 63.722656 12.347656 C 65.429688 12.347656 66.539062 13.453125 66.539062 15.257812 L 66.539062 20.394531 L 65.035156 20.394531 L 65.035156 15.707031 C 65.035156 14.175781 64.148438 13.671875 63.152344 13.671875 C 62.304688 13.671875 61.210938 14.3125 61.210938 15.570312 Z M 61.210938 20.394531 " fill-opacity="1" fill-rule="nonzero"/><path fill="#ffffff" d="M 71.222656 13.835938 L 71.222656 20.394531 L 69.722656 20.394531 L 69.722656 13.835938 L 68.695312 13.835938 L 68.695312 12.550781 L 69.722656 12.550781 L 69.722656 10.652344 L 71.222656 10.242188 L 71.222656 12.550781 L 72.261719 12.550781 L 72.261719 13.835938 Z M 71.222656 13.835938 " fill-opacity="1" fill-rule="nonzero"/><path fill="#ffffff" d="M 78.480469 20.804688 C 75.746094 20.804688 73.945312 18.90625 73.945312 16.472656 C 73.945312 14.039062 75.707031 12.15625 78.164062 12.15625 C 80.625 12.15625 82.34375 14 82.34375 16.390625 L 82.34375 16.746094 L 75.539062 16.746094 C 75.652344 18.386719 76.757812 19.492188 78.476562 19.492188 C 79.707031 19.492188 80.636719 19.011719 81.308594 18.34375 L 82.207031 19.3125 C 81.386719 20.132812 80.199219 20.804688 78.476562 20.804688 Z M 75.625 15.570312 L 80.679688 15.570312 C 80.390625 14.300781 79.433594 13.453125 78.164062 13.453125 C 76.894531 13.453125 75.925781 14.285156 75.625 15.570312 Z M 75.625 15.570312 " fill-opacity="1" fill-rule="nonzero"/><g clip-path="url(#364160154d)"><path fill="#ffffff" d="M 86.128906 20.394531 L 84.628906 20.394531 L 84.628906 12.550781 L 86.078125 12.550781 L 86.078125 14.148438 C 86.390625 13.535156 87.195312 12.550781 88.289062 12.550781 L 88.546875 12.550781 L 88.546875 14.257812 C 88.480469 14.230469 88.316406 14.203125 88.21875 14.203125 C 86.9375 14.203125 86.128906 15.3125 86.128906 16.089844 Z M 86.128906 20.394531 " fill-opacity="1" fill-rule="nonzero"/></g><g clip-path="url(#0128f9f61a)"><path fill="#ffffff" d="M 11.597656 6.167969 L 9.125 6.167969 L 9.125 12.746094 C 8.554688 9.019531 5.335938 6.167969 1.453125 6.167969 L 1.453125 22.859375 C 5.335938 22.859375 8.554688 20.007812 9.121094 16.285156 L 9.121094 22.859375 L 16.882812 22.859375 L 16.882812 11.453125 C 16.882812 8.535156 14.515625 6.167969 11.597656 6.167969 Z M 11.597656 6.167969 " fill-opacity="1" fill-rule="nonzero"/></g></svg>