<?xml version="1.0" encoding="UTF-8"?>
<svg xmlns="http://www.w3.org/2000/svg" viewBox="0 0 280 53.67">
  <defs>
    <style>.cls-1{fill:#030000;}</style>
  </defs>
  <g id="Camada_2" data-name="Camada 2">
    <g id="Camada_1-2" data-name="Camada 1">
      <path class="cls-1" d="M73.3,45.73H68.47V11.47h4.65v12a11,11,0,0,1,8.26-3.6c5.49,0,9.09,3.56,9.09,9.36V45.73H85.64V30.67c0-4.92-2.9-6.55-6.1-6.55a6.18,6.18,0,0,0-6.24,6.11Z"></path>
      <path class="cls-1" d="M126.62,33.13a14.39,14.39,0,1,1-14.4-13.88C120.52,19.25,126.62,25.57,126.62,33.13Zm-23.67,0a9.3,9.3,0,1,0,18.58,0,9.3,9.3,0,1,0-18.58,0Z"></path>
      <path class="cls-1" d="M147.27,20.87v4.44a10.93,10.93,0,0,0-5.14-1.49c-2.33,0-3.74,1-3.74,2.54,0,1.15,1.19,2.16,4.13,4,6,3.82,7.51,6.15,7.51,9,0,4.31-3.47,7.08-8.91,7.12a19.56,19.56,0,0,1-7.34-1.8V40.24a16.11,16.11,0,0,0,6.77,2.11c3,0,4.39-1.4,4.39-3,0-1-.57-2.24-5.23-5.09-5.14-3.34-6.41-5-6.41-8.21,0-2.95,2.5-6.37,8.48-6.33A13.74,13.74,0,0,1,147.27,20.87Z"></path>
      <path class="cls-1" d="M163.47,24.65V45.73h-4.83V24.65h-3.29V20.52h3.29v-6.1l4.83-1.32v7.42h3.34v4.13Z"></path>
      <path class="cls-1" d="M178.85,16.7h-5V11.47h5Zm-.09,29h-4.83V20.52h4.83Z"></path>
      <path class="cls-1" d="M192.11,45.73h-4.83V20.52h4.65v2.94a11,11,0,0,1,8.26-3.6c5.49,0,9.05,3.56,9.05,9.36V45.73h-4.83V30.67c0-4.92-2.86-6.55-6.06-6.55a6.18,6.18,0,0,0-6.24,6.11Z"></path>
      <path class="cls-1" d="M224.31,24.65V45.73h-4.84V24.65h-3.29V20.52h3.29v-6.1l4.84-1.32v7.42h3.33v4.13Z"></path>
      <path class="cls-1" d="M247.63,47.05c-8.79,0-14.58-6.1-14.58-13.92s5.66-13.88,13.57-13.88a13.34,13.34,0,0,1,13.44,13.61V34H238.19c.35,5.27,3.9,8.82,9.44,8.82a12.47,12.47,0,0,0,9.09-3.68l2.9,3.11A16.27,16.27,0,0,1,247.63,47.05Zm-9.18-16.82H254.7c-.92-4.09-4-6.81-8.08-6.81S239.42,26.1,238.45,30.23Z"></path>
      <path class="cls-1" d="M272.23,45.73h-4.84V20.52h4.66v5.14c1-2,3.6-5.14,7.12-5.14H280V26a3.72,3.72,0,0,0-1.05-.17,6.71,6.71,0,0,0-6.72,6.06Z"></path>
      <path class="cls-1" d="M32.61,0H24.66V21.15A25,25,0,0,0,0,0H0V53.67H0A25,25,0,0,0,24.66,32.52V53.67h25V17A17,17,0,0,0,32.61,0Z"></path>
    </g>
  </g>
</svg>
