<svg xmlns="http://www.w3.org/2000/svg" width="192" height="49" fill="#fff" viewBox="0 0 601 134"><path d="M91.54 74.04V43.7c0-.59-.71-.88-1.13-.47L60.07 73.57a.662.662 0 00.47 1.13h30.34c.36 0 .66-.3.66-.66z"></path><path d="M131.17 16.88c0-9.29-7.6-16.88-16.88-16.88H29.01c-.13 0-.24.11-.24.24v46.69c0 .21.26.32.41.17l34.63-34.44s.11-.07.17-.07H82c.21 0 .32.26.17.41L25.89 70.2c-.09.09-.25.1-.34 0L14.98 59.63s-.07-.11-.07-.17V.37c0-.14-.13-.26-.27-.24C6.41 1.17 0 8.24 0 16.74v100.01c0 9.29 7.6 16.88 16.88 16.88h97.4c9.29 0 16.88-7.6 16.88-16.88V97.18c0-.13-.11-.24-.24-.24h-18.6c-.13 0-.24.11-.24.24v19.61c0 .13-.11.24-.24.24H91c-.13 0-.24-.11-.24-.24V97.18c0-.13-.11-.24-.24-.24H29.63c-.54 0-.97-.43-.97-.97V78.1v-.02c-.01-.15-.17-2.3 1.55-4.01l60.72-60.71s.11-.07.17-.07h19.71s.06 0 .09.02c.26.11 1.5.72 1.5 2.38v59.09c0 .13.11.24.24.24h18.29c.13 0 .24-.11.24-.24v-57.9zM201.38 64.12h-12.581L168.48 28.786h-.287c.401 6.245.608 10.687.608 13.35V64.12h-8.851V17.41h12.49l20.285 34.978h.229c-.321-6.073-.482-10.366-.482-12.869V17.41h8.908V64.12zM243.19 46.2c0 5.81-1.539 10.367-4.604 13.638-3.065 3.284-7.335 4.925-12.811 4.925-3.433 0-6.452-.746-9.069-2.25-2.618-1.504-4.638-3.662-6.038-6.474-1.401-2.813-2.113-6.096-2.113-9.839 0-5.831 1.527-10.377 4.569-13.614 3.042-3.238 7.324-4.856 12.846-4.856 3.432 0 6.452.746 9.069 2.238 2.617 1.493 4.638 3.628 6.038 6.417 1.401 2.79 2.113 6.062 2.113 9.804v.011zm-24.693 0c0 3.536.574 6.211 1.745 8.025 1.159 1.814 3.053 2.72 5.671 2.72 2.617 0 4.465-.895 5.602-2.697 1.136-1.802 1.71-4.477 1.71-8.036 0-3.559-.574-6.188-1.722-7.955-1.148-1.768-3.03-2.652-5.659-2.652s-4.477.872-5.625 2.64c-1.148 1.757-1.722 4.408-1.722 7.967V46.2zM274.529 53.525c0 3.662-1.274 6.451-3.823 8.368-2.548 1.917-6.348 2.87-11.422 2.87-2.594 0-4.81-.172-6.647-.528a25.573 25.573 0 01-5.143-1.55v-8.047c1.814.85 3.846 1.561 6.119 2.147 2.273.574 4.271.86 5.992.86 3.536 0 5.304-1.02 5.304-3.064 0-.77-.23-1.39-.7-1.872-.471-.482-1.274-1.021-2.434-1.63-1.148-.608-2.686-1.32-4.603-2.123-2.744-1.148-4.764-2.216-6.05-3.192-1.286-.976-2.227-2.1-2.813-3.375-.585-1.263-.872-2.824-.872-4.683 0-3.169 1.228-5.626 3.685-7.359 2.457-1.733 5.946-2.606 10.458-2.606 4.511 0 8.483.942 12.559 2.813l-2.939 7.025a53.834 53.834 0 00-5.017-1.882 15.687 15.687 0 00-4.764-.735c-2.87 0-4.316.78-4.316 2.33 0 .873.459 1.63 1.389 2.273.93.643 2.95 1.585 6.084 2.847 2.79 1.125 4.833 2.181 6.13 3.157 1.298.976 2.262 2.112 2.87 3.387.62 1.274.93 2.8.93 4.569h.023zM305.409 53.525c0 3.662-1.274 6.451-3.822 8.368-2.549 1.917-6.349 2.87-11.423 2.87-2.594 0-4.81-.172-6.646-.528a25.534 25.534 0 01-5.143-1.55v-8.047c1.814.85 3.845 1.561 6.118 2.147 2.273.574 4.271.86 5.993.86 3.536 0 5.303-1.02 5.303-3.064 0-.77-.229-1.39-.7-1.872-.47-.482-1.274-1.021-2.434-1.63-1.147-.608-2.686-1.32-4.603-2.123-2.743-1.148-4.764-2.216-6.05-3.192-1.285-.976-2.227-2.1-2.812-3.375-.586-1.263-.873-2.824-.873-4.683 0-3.169 1.229-5.626 3.685-7.359 2.457-1.733 5.947-2.606 10.458-2.606 4.512 0 8.484.942 12.559 2.813l-2.939 7.025a53.927 53.927 0 00-5.016-1.882 15.697 15.697 0 00-4.764-.735c-2.87 0-4.317.78-4.317 2.33 0 .873.459 1.63 1.389 2.273.93.643 2.951 1.585 6.085 2.847 2.789 1.125 4.833 2.181 6.13 3.157 1.297.976 2.261 2.112 2.87 3.387.62 1.274.929 2.8.929 4.569h.023zM343.843 46.2c0 5.81-1.538 10.367-4.603 13.638-3.065 3.284-7.335 4.925-12.811 4.925-3.433 0-6.452-.746-9.069-2.25-2.618-1.504-4.638-3.662-6.039-6.474-1.4-2.813-2.112-6.096-2.112-9.839 0-5.831 1.527-10.377 4.569-13.614 3.042-3.238 7.324-4.856 12.846-4.856 3.432 0 6.451.746 9.069 2.238 2.617 1.493 4.638 3.628 6.038 6.417 1.401 2.79 2.112 6.062 2.112 9.804v.011zm-24.692 0c0 3.536.574 6.211 1.745 8.025 1.159 1.814 3.053 2.72 5.67 2.72 2.618 0 4.466-.895 5.603-2.697 1.136-1.802 1.71-4.477 1.71-8.036 0-3.559-.574-6.188-1.722-7.955-1.148-1.768-3.031-2.652-5.659-2.652-2.629 0-4.477.872-5.625 2.64-1.148 1.757-1.722 4.408-1.722 7.967V46.2zM398.579 64.12h-9.747V43.262c0-2.583-.459-4.512-1.377-5.797-.919-1.286-2.377-1.93-4.374-1.93-2.732 0-4.695.908-5.912 2.733-1.217 1.825-1.825 4.844-1.825 9.057v16.807h-9.747V28.418h7.439l1.309 4.57h.54c1.09-1.723 2.582-3.031 4.488-3.915 1.906-.884 4.075-1.332 6.498-1.332 4.155 0 7.301 1.125 9.459 3.375 2.147 2.25 3.226 5.487 3.226 9.724v23.292l.023-.012zM423.145 64.763c-5.751 0-10.24-1.584-13.477-4.764s-4.856-7.668-4.856-13.477 1.492-10.607 4.489-13.879c2.996-3.272 7.129-4.902 12.409-4.902 5.281 0 8.977 1.435 11.79 4.316 2.812 2.882 4.213 6.854 4.213 11.916v4.73h-23.028c.103 2.767.929 4.925 2.456 6.486s3.685 2.33 6.452 2.33c2.147 0 4.19-.23 6.107-.665 1.917-.448 3.915-1.16 6.004-2.147v7.542a23.324 23.324 0 01-5.464 1.906c-1.941.413-4.305.62-7.095.62v-.012zm-1.377-30.1c-2.067 0-3.685.655-4.856 1.964-1.171 1.308-1.837 3.168-2.009 5.579h13.672c-.046-2.411-.666-4.27-1.883-5.58-1.217-1.308-2.858-1.963-4.924-1.963zM475.091 28.407v4.948L469.5 34.79c1.022 1.595 1.538 3.386 1.538 5.372 0 3.834-1.343 6.82-4.006 8.966-2.675 2.147-6.383 3.214-11.135 3.214l-1.757-.092-1.435-.16c-.998.769-1.503 1.618-1.503 2.56 0 1.4 1.79 2.112 5.361 2.112h6.072c3.915 0 6.911.838 8.966 2.525 2.055 1.688 3.088 4.156 3.088 7.416 0 4.179-1.745 7.416-5.223 9.712-3.479 2.296-8.484 3.456-15.004 3.456-4.982 0-8.794-.873-11.423-2.606-2.628-1.734-3.949-4.168-3.949-7.302 0-2.158.666-3.948 2.009-5.395 1.344-1.446 3.307-2.48 5.912-3.1-.998-.424-1.871-1.125-2.617-2.089s-1.113-1.997-1.113-3.088c0-1.366.39-2.502 1.182-3.398.792-.907 1.928-1.79 3.421-2.663-1.871-.815-3.364-2.112-4.454-3.903-1.102-1.791-1.642-3.892-1.642-6.325 0-3.904 1.263-6.911 3.8-9.047 2.537-2.135 6.153-3.19 10.86-3.19.998 0 2.192.091 3.558.275 1.378.183 2.25.31 2.641.401h12.455l-.011-.034zm-27.574 40.764c0 1.343.642 2.4 1.928 3.157 1.286.77 3.088 1.148 5.419 1.148 3.489 0 6.233-.482 8.208-1.435 1.985-.953 2.973-2.273 2.973-3.926 0-1.343-.586-2.273-1.757-2.778-1.171-.516-2.984-.769-5.43-.769h-5.051c-1.79 0-3.283.425-4.488 1.263-1.206.838-1.802 1.951-1.802 3.34zm3.547-29.078c0 1.94.436 3.467 1.32 4.604.884 1.125 2.227 1.699 4.041 1.699 1.814 0 3.168-.563 4.029-1.7.85-1.124 1.274-2.663 1.274-4.603 0-4.305-1.768-6.451-5.303-6.451-3.536 0-5.361 2.146-5.361 6.451zM511.791 46.2c0 5.81-1.538 10.367-4.603 13.638-3.065 3.284-7.336 4.925-12.811 4.925-3.433 0-6.452-.746-9.069-2.25-2.618-1.504-4.638-3.662-6.039-6.474-1.4-2.813-2.112-6.096-2.112-9.839 0-5.831 1.527-10.377 4.569-13.614 3.042-3.238 7.324-4.856 12.846-4.856 3.432 0 6.451.746 9.069 2.238 2.617 1.493 4.638 3.628 6.038 6.417 1.401 2.79 2.112 6.062 2.112 9.804v.011zm-24.693 0c0 3.536.574 6.211 1.745 8.025 1.16 1.814 3.054 2.72 5.671 2.72 2.618 0 4.466-.895 5.602-2.697 1.137-1.802 1.711-4.477 1.711-8.036 0-3.559-.574-6.188-1.722-7.955-1.148-1.768-3.031-2.652-5.66-2.652-2.628 0-4.477.872-5.625 2.64-1.148 1.757-1.722 4.408-1.722 7.967V46.2zm2.044-21.719v-.861c3.662-4.259 6.164-7.462 7.508-9.62h10.928v.666c-1.102 1.113-2.996 2.755-5.671 4.936-2.674 2.181-4.764 3.811-6.279 4.867h-6.486v.012zM532.707 64.763c-11.124 0-16.68-6.107-16.68-18.31 0-6.073 1.516-10.71 4.535-13.913 3.019-3.203 7.358-4.81 13.006-4.81 4.133 0 7.841.815 11.113 2.433l-2.87 7.543a46.596 46.596 0 00-4.282-1.516 13.912 13.912 0 00-3.961-.585c-5.074 0-7.599 3.593-7.599 10.802 0 7.21 2.537 10.481 7.599 10.481 1.871 0 3.605-.252 5.212-.746 1.596-.505 3.191-1.286 4.787-2.342v8.334c-1.573 1-3.168 1.688-4.775 2.078-1.608.379-3.64.574-6.085.574v-.023zM549.789 19.177c0-3.168 1.768-4.764 5.304-4.764 3.535 0 5.303 1.585 5.303 4.764 0 1.516-.436 2.687-1.32 3.536-.884.838-2.204 1.263-3.972 1.263-3.536 0-5.303-1.596-5.303-4.787l-.012-.012zm10.16 44.955h-9.747V28.418h9.747v35.714zM601 46.2c0 5.81-1.538 10.367-4.603 13.638-3.065 3.284-7.336 4.925-12.812 4.925-3.432 0-6.451-.746-9.069-2.25-2.617-1.504-4.637-3.662-6.038-6.474-1.401-2.813-2.112-6.096-2.112-9.839 0-5.831 1.527-10.377 4.569-13.614 3.042-3.238 7.324-4.856 12.845-4.856 3.433 0 6.452.746 9.069 2.238 2.618 1.493 4.638 3.628 6.039 6.417 1.4 2.79 2.112 6.062 2.112 9.804v.011zm-24.693 0c0 3.536.574 6.211 1.745 8.025 1.159 1.814 3.054 2.72 5.671 2.72 2.617 0 4.466-.895 5.602-2.697 1.137-1.802 1.711-4.477 1.711-8.036 0-3.559-.574-6.188-1.722-7.955-1.148-1.768-3.031-2.652-5.66-2.652s-4.477.872-5.625 2.64c-1.148 1.757-1.722 4.408-1.722 7.967V46.2zM175.333 118.821c-5.751 0-10.24-1.584-13.477-4.764S157 106.389 157 100.58s1.492-10.607 4.489-13.88c2.996-3.27 7.128-4.901 12.409-4.901 5.281 0 8.977 1.435 11.79 4.316 2.812 2.882 4.213 6.854 4.213 11.916v4.73h-23.028c.103 2.767.929 4.925 2.456 6.486s3.685 2.33 6.452 2.33c2.146 0 4.19-.229 6.107-.665 1.917-.448 3.915-1.16 6.004-2.147v7.542a23.356 23.356 0 01-5.464 1.906c-1.941.413-4.305.62-7.095.62v-.012zm-1.377-30.1c-2.067 0-3.685.655-4.856 1.963-1.171 1.309-1.837 3.169-2.009 5.58h13.672c-.046-2.411-.666-4.271-1.883-5.58-1.217-1.308-2.858-1.963-4.924-1.963zm-5.626-10.194v-.86c3.662-4.26 6.165-7.462 7.508-9.62h10.929v.665c-1.102 1.114-2.996 2.755-5.671 4.936-2.675 2.182-4.764 3.812-6.28 4.868h-6.486v.011zM222.813 108.57c1.171-3.261 2.147-5.637 2.939-7.129l9.494-18.976h10.32l-19.298 35.713h-10.32l-4.408-35.713h9.425l1.435 18.723c.149 2.836.218 5.292.218 7.382h.195zM258.067 118.821c-4.477 0-7.944-1.205-10.412-3.605-2.468-2.41-3.708-5.808-3.708-10.194 0-4.385.873-8.426 2.64-12.065 1.757-3.627 4.133-6.405 7.141-8.311 3.008-1.906 6.406-2.858 10.194-2.858 3.788 0 6.704.872 8.816 2.606 2.113 1.733 3.169 4.11 3.169 7.14 0 3.983-1.78 7.06-5.338 9.218-3.559 2.158-8.633 3.249-15.234 3.249h-1.63l-.069.666v.642c0 1.941.551 3.467 1.642 4.581 1.102 1.113 2.663 1.676 4.718 1.676 1.848 0 3.536-.207 5.051-.609 1.515-.401 3.34-1.113 5.499-2.146v7.255c-3.662 1.837-7.818 2.744-12.456 2.744l-.023.011zm5.235-30.1c-1.871 0-3.639.85-5.304 2.56-1.664 1.71-2.743 3.777-3.26 6.234h1.435c3.306 0 5.878-.517 7.714-1.55 1.837-1.033 2.767-2.434 2.767-4.202 0-2.02-1.114-3.03-3.352-3.03v-.012zM308.015 118.178h-9.62l4.374-20.858c.345-1.447.517-2.721.517-3.8 0-2.617-1.148-3.926-3.456-3.926-1.963 0-3.742 1.217-5.338 3.639-1.595 2.422-2.858 5.82-3.765 10.159l-3.134 14.786h-9.62l7.577-35.713h7.347l-.666 6.612h.195c3.111-4.856 6.888-7.29 11.342-7.29 2.939 0 5.212.896 6.819 2.664 1.607 1.78 2.41 4.316 2.41 7.622 0 1.55-.241 3.467-.734 5.752l-4.248 20.353zM328.575 118.821c-3.134 0-5.602-1.136-7.392-3.421-1.803-2.284-2.698-5.476-2.698-9.585 0-4.11.757-8.162 2.284-11.962 1.527-3.8 3.536-6.762 6.027-8.886 2.491-2.123 5.235-3.18 8.243-3.18 1.744 0 3.248.39 4.523 1.183 1.262.792 2.468 2.147 3.593 4.064h.252l.069-.896c.126-2.342.39-4.42.804-6.233l2.433-11.434h9.62l-10.538 49.707h-7.313l.448-4.638h-.126c-1.515 1.849-3.1 3.192-4.741 4.03-1.653.826-3.467 1.24-5.453 1.24l-.035.011zm4.03-7.76c1.4 0 2.778-.735 4.11-2.193 1.331-1.458 2.399-3.398 3.214-5.832.815-2.433 1.217-5.04 1.217-7.829 0-1.699-.402-3.065-1.194-4.086-.792-1.022-1.894-1.527-3.272-1.527-1.377 0-2.824.769-4.133 2.296-1.308 1.538-2.353 3.558-3.134 6.073-.78 2.514-1.17 5.005-1.17 7.473 0 3.754 1.457 5.625 4.373 5.625h-.011zM370.763 118.821c-4.477 0-7.944-1.205-10.412-3.605-2.468-2.41-3.708-5.808-3.708-10.194 0-4.385.873-8.426 2.641-12.065 1.756-3.627 4.132-6.405 7.14-8.311 3.008-1.906 6.406-2.858 10.194-2.858 3.788 0 6.704.872 8.816 2.606 2.113 1.733 3.169 4.11 3.169 7.14 0 3.983-1.78 7.06-5.338 9.218-3.559 2.158-8.633 3.249-15.234 3.249h-1.63l-.069.666v.642c0 1.941.551 3.467 1.642 4.581 1.102 1.113 2.663 1.676 4.718 1.676 1.848 0 3.536-.207 5.051-.609 1.515-.401 3.341-1.113 5.499-2.146v7.255c-3.662 1.837-7.818 2.744-12.456 2.744l-.023.011zm5.235-30.1c-1.871 0-3.639.85-5.304 2.56-1.664 1.71-2.743 3.777-3.26 6.234h1.435c3.306 0 5.878-.517 7.715-1.55 1.836-1.033 2.766-2.434 2.766-4.202 0-2.02-1.113-3.03-3.352-3.03v-.012zM416.395 81.799c1.251 0 2.285.115 3.065.356l-2.112 9.264c-.953-.344-2.021-.517-3.191-.517-2.469 0-4.638.976-6.498 2.928-1.86 1.951-3.191 4.74-3.972 8.391l-3.386 15.98h-9.62l7.576-35.713h7.347l-.666 6.612h.195c3.134-4.856 6.888-7.29 11.274-7.29l-.012-.011zM470.166 100.258c0 5.809-1.538 10.367-4.603 13.638-3.065 3.283-7.336 4.925-12.812 4.925-3.432 0-6.451-.746-9.069-2.25-2.617-1.504-4.638-3.662-6.038-6.475-1.401-2.812-2.112-6.095-2.112-9.838 0-5.831 1.527-10.377 4.569-13.614 3.042-3.238 7.324-4.856 12.845-4.856 3.433 0 6.452.746 9.069 2.238 2.618 1.493 4.638 3.628 6.039 6.417 1.4 2.79 2.112 6.061 2.112 9.804v.011zm-24.693 0c0 3.536.574 6.211 1.745 8.025 1.16 1.813 3.054 2.72 5.671 2.72 2.617 0 4.466-.895 5.602-2.697 1.137-1.803 1.711-4.477 1.711-8.036 0-3.559-.574-6.188-1.722-7.956-1.148-1.767-3.031-2.651-5.66-2.651s-4.477.872-5.625 2.64c-1.148 1.756-1.722 4.408-1.722 7.967v-.012zM518.691 107.582c0 3.662-1.275 6.452-3.823 8.369-2.549 1.917-6.348 2.87-11.422 2.87-2.595 0-4.81-.172-6.647-.528a25.515 25.515 0 01-5.143-1.55v-8.047c1.814.849 3.846 1.561 6.119 2.147 2.273.574 4.27.861 5.992.861 3.536 0 5.304-1.022 5.304-3.065 0-.77-.23-1.389-.701-1.872-.47-.482-1.274-1.021-2.433-1.63-1.148-.608-2.687-1.32-4.604-2.123-2.743-1.148-4.764-2.216-6.049-3.192-1.286-.976-2.228-2.1-2.813-3.375-.585-1.263-.872-2.824-.872-4.684 0-3.168 1.228-5.625 3.685-7.358 2.456-1.734 5.946-2.606 10.458-2.606 4.511 0 8.483.941 12.558 2.813l-2.939 7.025a53.847 53.847 0 00-5.016-1.883 15.689 15.689 0 00-4.764-.734c-2.87 0-4.317.78-4.317 2.33 0 .873.46 1.63 1.389 2.273.93.643 2.951 1.584 6.085 2.847 2.789 1.125 4.833 2.181 6.13 3.157 1.297.976 2.261 2.112 2.87 3.387.62 1.274.93 2.801.93 4.568h.023zM541.742 118.821c-5.752 0-10.24-1.584-13.477-4.764-3.238-3.18-4.856-7.668-4.856-13.477s1.492-10.607 4.488-13.88c2.996-3.27 7.129-4.901 12.41-4.901 5.28 0 8.977 1.435 11.789 4.316 2.813 2.882 4.214 6.854 4.214 11.916v4.73h-23.029c.104 2.767.93 4.925 2.457 6.486 1.527 1.561 3.685 2.33 6.452 2.33 2.146 0 4.19-.229 6.107-.665 1.917-.448 3.914-1.16 6.004-2.147v7.542a23.364 23.364 0 01-5.465 1.906c-1.94.413-4.305.62-7.094.62v-.012zm-1.378-30.1c-2.066 0-3.685.655-4.856 1.963-1.171 1.309-1.836 3.169-2.009 5.58h13.673c-.046-2.411-.666-4.271-1.883-5.58-1.217-1.308-2.858-1.963-4.925-1.963zM588.809 118.178l-1.309-4.569h-.517c-1.044 1.665-2.525 2.951-4.442 3.846-1.917.895-4.099 1.355-6.555 1.355-4.202 0-7.359-1.125-9.494-3.375s-3.191-5.476-3.191-9.701V82.442h9.746V103.3c0 2.583.459 4.512 1.377 5.798.919 1.285 2.377 1.928 4.374 1.928 2.732 0 4.695-.907 5.912-2.732 1.217-1.825 1.826-4.844 1.826-9.057V82.43h9.746v35.714h-7.473v.034z"></path></svg>