<?xml version="1.0" encoding="UTF-8"?>
<svg id="Camada_2" data-name="Camada 2" xmlns="http://www.w3.org/2000/svg" viewBox="0 0 471.33 92.99">
  <defs>
    <style>
      .cls-1 {
        fill-rule: evenodd;
      }
    </style>
  </defs>
  <g id="Camada_1-2" data-name="Camada 1">
    <g>
      <path class="cls-1" d="M70.55,25.46c-1.54-1.75-4.2-1.92-5.95-.38-1.75,1.54-1.92,4.2-.38,5.95s4.2,1.92,5.95.38c1.75-1.54,1.92-4.2.38-5.95M15.1,0h62.8c8.3,0,15.1,6.79,15.1,15.1v62.8c0,8.3-6.8,15.1-15.1,15.1h-35.63c-3.1-.51-5.98-2.11-8.04-4.6-8.8-10.63,6.06-30.63,18.11-44.06l2.32,2.07,3.59-.35-.88,6.15s5.1-1.84,6.45-3.12c1.35-1.27,3.92-8.03,3.92-8.03,5.79-4.34,12.28-11.94,12.84-24.41-12.43-1.05-20.81,4.42-25.86,9.6,0,0-7.03,1.68-8.47,2.85-1.43,1.18-3.92,5.99-3.92,5.99l6.21-.08-.81,3.51,1.68,2.46C30.28,52.41,0,67.61,0,46.49V15.1C0,6.79,6.8,0,15.1,0Z"/>
      <g>
        <path d="M133.85,70.32c-4.18,0-8.39-.35-12.63-1.04-4.24-.68-8.35-1.71-12.33-3.08l4.21-10.79c3.26,1.17,6.71,2.08,10.33,2.75s6.82,1,9.58,1,4.93-.21,6.54-.65c1.61-.44,2.42-1.3,2.42-2.56,0-.97-.45-1.7-1.35-2.19-.89-.48-2.66-.98-5.31-1.5l-8.58-1.23c-5.67-1.01-9.77-2.61-12.29-4.81-2.53-2.19-3.79-5.36-3.79-9.5,0-4.54,1.82-8,5.48-10.38,3.65-2.38,9.1-3.56,16.35-3.56,3.57,0,7.29.33,11.17,1,3.89.67,7.69,1.61,11.42,2.83l-4.9,10.56c-3.42-1.01-6.57-1.75-9.46-2.21-2.89-.46-5.56-.69-8-.69s-4.34.22-5.52.65c-1.17.43-1.75,1.14-1.75,2.1,0,.92.49,1.59,1.48,2.02,1,.43,2.75.91,5.25,1.42l8.27,1.31c5.36,1.07,9.35,2.68,11.98,4.83,2.63,2.14,3.94,5.18,3.94,9.1,0,5.16-1.92,8.88-5.75,11.17-3.82,2.29-9.41,3.44-16.75,3.44Z"/>
        <path d="M214.14,48.74v.85h-37.29c.71,2.5,2.17,4.53,4.4,6.08,2.22,1.56,5.15,2.33,8.77,2.33,3.07,0,5.96-.42,8.69-1.27,2.73-.84,5.13-1.82,7.17-2.94l6.27,11.1c-2.41,1.38-5.56,2.66-9.46,3.83-3.91,1.17-8.28,1.75-13.13,1.75-5.52,0-10.34-.97-14.48-2.92-4.13-1.94-7.35-4.7-9.69-8.27-2.32-3.57-3.48-7.78-3.48-12.63v-.15c0-4.65,1.07-8.75,3.21-12.29,2.15-3.55,5.21-6.35,9.17-8.4s8.59-3.06,13.9-3.06,9.59.97,13.5,2.92c3.92,1.95,6.97,4.83,9.17,8.67,2.19,3.82,3.29,8.61,3.29,14.38ZM188.1,34.12c-2.71,0-5.05.67-7.02,2-1.96,1.32-3.32,3.18-4.08,5.58h22.58c-.61-2.25-1.93-4.07-3.94-5.48-2.02-1.4-4.53-2.1-7.54-2.1Z"/>
        <path d="M235.38,69.26h-14.4V25.47c2.61-.51,5.41-.97,8.4-1.38,2.98-.42,5.9-.75,8.75-1,2.86-.25,5.36-.38,7.52-.38,5.21,0,9.59.58,13.17,1.73,3.57,1.14,6.27,3.06,8.1,5.77,1.84,2.71,2.77,6.46,2.77,11.25v27.79h-14.4v-25.73c0-3.05-.85-5.15-2.54-6.27-1.68-1.13-4.18-1.69-7.5-1.69-1.58,0-3.27.09-5.06.27-1.78.18-3.39.4-4.81.65v32.77Z"/>
        <path d="M304.41,70.55c-5.61,0-10.52-.99-14.71-2.98-4.18-1.98-7.41-4.78-9.69-8.38-2.27-3.59-3.4-7.77-3.4-12.52v-.15c0-4.8,1.08-8.98,3.25-12.52,2.18-3.55,5.3-6.32,9.35-8.31,4.05-1.98,8.89-2.98,14.5-2.98,1.69,0,3.42.1,5.17.31,1.76.2,3.36.45,4.79.75V7.18h14.4v58.94c-3.83,1.43-7.59,2.53-11.27,3.29-3.67.76-7.8,1.15-12.4,1.15ZM304.41,57.7c1.54,0,3.13-.09,4.75-.27,1.64-.18,3.15-.44,4.52-.79v-20c-1.22-.25-2.68-.48-4.38-.71-1.68-.23-3.33-.35-4.96-.35-4.35,0-7.65,1-9.9,3-2.24,1.99-3.35,4.64-3.35,7.96v.15c0,3.32,1.13,5.99,3.4,8,2.28,2.02,5.58,3.02,9.92,3.02Z"/>
        <path d="M387.16,48.74v.85h-37.29c.71,2.5,2.17,4.53,4.4,6.08,2.22,1.56,5.15,2.33,8.77,2.33,3.07,0,5.96-.42,8.69-1.27,2.73-.84,5.13-1.82,7.17-2.94l6.27,11.1c-2.41,1.38-5.56,2.66-9.46,3.83-3.91,1.17-8.28,1.75-13.13,1.75-5.52,0-10.34-.97-14.48-2.92-4.13-1.94-7.35-4.7-9.69-8.27-2.32-3.57-3.48-7.78-3.48-12.63v-.15c0-4.65,1.07-8.75,3.21-12.29,2.15-3.55,5.21-6.35,9.17-8.4s8.59-3.06,13.9-3.06,9.59.97,13.5,2.92c3.92,1.95,6.97,4.83,9.17,8.67,2.19,3.82,3.29,8.61,3.29,14.38ZM361.12,34.12c-2.71,0-5.05.67-7.02,2-1.96,1.32-3.32,3.18-4.08,5.58h22.58c-.61-2.25-1.93-4.07-3.94-5.48-2.02-1.4-4.53-2.1-7.54-2.1Z"/>
        <path d="M408.4,69.26h-14.4V26.24c2.09-.3,4.34-.57,6.75-.79,2.4-.23,4.75-.42,7.04-.54,2.29-.14,4.41-.23,6.35-.27,1.94-.05,3.5-.08,4.67-.08h9.1v13.31h-11.02c-.67,0-1.58.02-2.73.04-1.14.03-2.26.08-3.35.17-1.1.07-1.91.16-2.42.25v30.94Z"/>
        <path d="M424.45,66.21h-1.92v-15.88h7.98c1.34,0,2.42.21,3.23.63.82.42,1.41.98,1.77,1.69.38.7.56,1.5.56,2.42v.02c0,1.52-.46,2.72-1.38,3.6-.91.88-2.29,1.31-4.17,1.31h-6.08v6.21ZM424.45,52.14v6.15h5.96c2.46,0,3.69-1.03,3.69-3.08v-.04c0-1.08-.33-1.85-1-2.31-.67-.47-1.56-.71-2.69-.71h-5.96Z"/>
        <path d="M447.75,59.6l4.42,6.6h-2.15l-4.29-6.42h-5.75v6.42h-1.92v-15.88h7.81c1.84,0,3.23.43,4.17,1.29.94.85,1.42,1.96,1.42,3.33v.02c0,1.18-.32,2.18-.96,2.98-.63.81-1.54,1.35-2.75,1.65ZM445.71,52.14h-5.73v5.85h5.73c1.13,0,2.03-.23,2.73-.71.69-.47,1.04-1.23,1.04-2.29v-.02c0-1.04-.35-1.77-1.04-2.19-.7-.43-1.6-.65-2.73-.65Z"/>
        <path d="M462.39,66.43c-1.32,0-2.53-.2-3.63-.58-1.08-.4-2.02-.96-2.81-1.69-.79-.73-1.41-1.6-1.83-2.6-.43-1-.65-2.09-.65-3.27v-.04c0-1.21.21-2.3.65-3.29.43-.98,1.04-1.84,1.83-2.56.79-.73,1.73-1.3,2.81-1.71,1.09-.4,2.3-.6,3.63-.6s2.55.2,3.65.6c1.09.41,2.04.97,2.83,1.71.79.72,1.4,1.58,1.81,2.56.43.99.65,2.08.65,3.29v.04c0,1.18-.22,2.27-.65,3.27-.42,1-1.02,1.87-1.81,2.6-.79.72-1.74,1.29-2.83,1.69-1.1.39-2.31.58-3.65.58ZM462.39,64.62c1.34,0,2.54-.26,3.58-.77,1.04-.53,1.86-1.26,2.46-2.21.61-.96.92-2.07.92-3.35v-.02c0-1.29-.31-2.41-.92-3.35-.6-.96-1.42-1.69-2.46-2.21-1.04-.53-2.24-.79-3.58-.79s-2.52.27-3.56.79c-1.04.52-1.86,1.24-2.46,2.19-.6.95-.9,2.07-.9,3.38v.02c0,1.28.3,2.4.9,3.35.59.95,1.42,1.68,2.46,2.21,1.05.52,2.24.77,3.56.77Z"/>
      </g>
    </g>
  </g>
</svg>