<?xml version="1.0" encoding="UTF-8" standalone="no"?>
<!DOCTYPE svg PUBLIC "-//W3C//DTD SVG 1.1//EN" "http://www.w3.org/Graphics/SVG/1.1/DTD/svg11.dtd">
<svg width="100%" height="100%" viewBox="0 0 521 111" version="1.1" xmlns="http://www.w3.org/2000/svg" xmlns:xlink="http://www.w3.org/1999/xlink" xml:space="preserve" xmlns:serif="http://www.serif.com/" style="fill-rule:evenodd;clip-rule:evenodd;stroke-linejoin:round;stroke-miterlimit:2;">
    <g>
        <g>
            <path d="M167.72,88.6C152.53,88.6 144.4,78.48 144.4,61.79L144.4,24.69L154.19,24.69L154.19,64.19C154.19,74.48 160.75,79.63 167.72,79.63C174.69,79.63 181.41,74.48 181.41,64.19L181.41,24.69L191.2,24.69L191.2,61.79C191.2,78.47 183.07,88.6 167.71,88.6L167.72,88.6Z" style="fill:rgb(239,111,24);fill-rule:nonzero;"/>
            <path d="M226.57,82.29C223.42,85.61 218.69,88.27 212.63,88.27C203.67,88.27 196.69,81.55 196.69,72.5C196.69,63.45 203.49,56.73 213.79,56.73C218.85,56.73 222.92,58.31 225.83,60.55L225.83,57.31C225.83,48.1 221.93,45.36 215.29,45.44C212.05,45.44 209.48,45.77 203.59,46.85L203.17,39.13C208.9,37.97 211.72,37.64 216.2,37.64C229.06,37.64 234.96,44.03 234.96,54.4L234.96,86.6L226.58,86.6L226.58,82.28L226.57,82.29ZM225.9,72.25C225.9,67.1 221.92,62.79 215.86,62.79C209.8,62.79 206.23,67.11 206.23,72.25C206.23,77.73 210.05,82.21 215.86,82.21C221.67,82.21 225.9,77.81 225.9,72.25Z" style="fill:rgb(239,111,24);fill-rule:nonzero;"/>
            <path d="M275.2,80.96C272.05,84.61 266.49,87.85 259.6,87.85C249.31,87.85 242.42,81.13 242.42,70.17L242.42,38.96L251.55,38.96L251.55,67.43C251.55,76.72 257.03,79.8 263.09,79.8C268.23,79.8 274.88,75.9 274.88,68.26L274.88,38.96L284.01,38.96L284.01,86.6L275.21,86.6L275.21,80.96L275.2,80.96Z" style="fill:rgb(239,111,24);fill-rule:nonzero;"/>
            <path d="M337.95,35.56C333.97,32.99 329.32,31.66 324.34,31.66C310.65,31.66 299.86,42.86 299.86,55.48C299.86,68.1 310.65,79.63 324.34,79.63C329.32,79.63 333.97,78.22 337.95,75.73L337.95,85.44C333.72,87.52 328.9,88.59 323.84,88.59C304.67,88.59 289.98,73.82 289.98,55.56C289.98,37.3 304.67,22.69 323.84,22.69C328.9,22.69 333.63,23.77 337.95,25.84L337.95,35.56Z" style="fill:rgb(239,111,24);fill-rule:nonzero;"/>
            <rect x="344.92" y="21.87" width="9.13" height="64.73" style="fill:rgb(239,111,24);fill-rule:nonzero;"/>
            <path d="M414.39,62.78C414.39,77.06 402.85,89.01 387.17,89.01C371.49,89.01 360.03,77.06 360.03,62.78C360.03,48.5 371.57,36.55 387.17,36.55C402.77,36.55 414.39,48.5 414.39,62.78ZM369.66,62.78C369.66,72.74 377.04,81.12 387.17,81.12C397.3,81.12 404.76,72.66 404.76,62.78C404.76,52.9 397.37,44.44 387.17,44.44C376.97,44.44 369.66,52.82 369.66,62.78Z" style="fill:rgb(239,111,24);fill-rule:nonzero;"/>
            <path d="M452.82,80.96C449.67,84.61 444.11,87.85 437.22,87.85C426.93,87.85 420.04,81.13 420.04,70.17L420.04,38.96L429.17,38.96L429.17,67.43C429.17,76.72 434.65,79.8 440.71,79.8C445.86,79.8 452.5,75.9 452.5,68.26L452.5,38.96L461.63,38.96L461.63,86.6L452.83,86.6L452.83,80.96L452.82,80.96Z" style="fill:rgb(239,111,24);fill-rule:nonzero;"/>
            <path d="M512,79.22C507.44,84.86 500.38,88.43 492.08,88.43C478.05,88.43 467.43,76.89 467.43,62.87C467.43,48.85 478.05,37.14 492.08,37.14C500.05,37.14 507.02,40.63 511.58,46.1L511.58,21.87L520.71,21.87L520.71,86.6L512,86.6L512,79.21L512,79.22ZM494.32,45.19C484.28,45.19 477.06,53.32 477.06,62.7C477.06,72.08 484.28,80.38 494.32,80.38C504.36,80.38 511.83,72.08 511.83,62.79C511.83,53.5 504.36,45.2 494.32,45.2L494.32,45.19Z" style="fill:rgb(239,111,24);fill-rule:nonzero;"/>
        </g>
        <path d="M67.39,0L50.96,0L50.96,43.69C47.17,18.95 25.8,0 0,0L0,110.88C25.8,110.88 47.17,91.93 50.95,67.19L50.95,110.88L102.5,110.88L102.5,35.11C102.5,15.72 86.78,0 67.39,0Z" style="fill:rgb(239,111,24);fill-rule:nonzero;"/>
    </g>
</svg>
