<?xml version="1.0" encoding="UTF-8"?>
<svg id="Camada_2" data-name="Camada 2" xmlns="http://www.w3.org/2000/svg" viewBox="0 0 520.71 110.88">
  <defs>
    <style>
      .cls-1 {
        fill: #0f172a;
      }
    </style>
  </defs>
  <g id="Camada_1-2" data-name="Camada 1">
    <g>
      <g>
        <path class="cls-1" d="M167.72,88.6c-15.19,0-23.32-10.12-23.32-26.81V24.69h9.79v39.5c0,10.29,6.56,15.44,13.53,15.44s13.69-5.15,13.69-15.44V24.69h9.79v37.1c0,16.68-8.13,26.81-23.49,26.81Z"/>
        <path class="cls-1" d="M226.57,82.29c-3.15,3.32-7.88,5.98-13.94,5.98-8.96,0-15.94-6.72-15.94-15.77s6.8-15.77,17.1-15.77c5.06,0,9.13,1.58,12.04,3.82v-3.24c0-9.21-3.9-11.95-10.54-11.87-3.24,0-5.81.33-11.7,1.41l-.42-7.72c5.73-1.16,8.55-1.49,13.03-1.49,12.86,0,18.76,6.39,18.76,16.76v32.2h-8.38v-4.32ZM225.9,72.25c0-5.15-3.98-9.46-10.04-9.46s-9.63,4.32-9.63,9.46c0,5.48,3.82,9.96,9.63,9.96s10.04-4.4,10.04-9.96Z"/>
        <path class="cls-1" d="M275.2,80.96c-3.15,3.65-8.71,6.89-15.6,6.89-10.29,0-17.18-6.72-17.18-17.68v-31.21h9.13v28.47c0,9.29,5.48,12.37,11.54,12.37,5.14,0,11.79-3.9,11.79-11.54v-29.3h9.13v47.64h-8.8v-5.64Z"/>
        <path class="cls-1" d="M337.95,35.56c-3.98-2.57-8.63-3.9-13.61-3.9-13.69,0-24.48,11.2-24.48,23.82s10.79,24.15,24.48,24.15c4.98,0,9.63-1.41,13.61-3.9v9.71c-4.23,2.08-9.05,3.15-14.11,3.15-19.17,0-33.86-14.77-33.86-33.03s14.69-32.87,33.86-32.87c5.06,0,9.79,1.08,14.11,3.15v9.71Z"/>
        <path class="cls-1" d="M354.05,86.6h-9.13V21.87h9.13v64.73Z"/>
        <path class="cls-1" d="M414.39,62.78c0,14.28-11.54,26.23-27.22,26.23s-27.14-11.95-27.14-26.23,11.54-26.23,27.14-26.23,27.22,11.95,27.22,26.23ZM369.66,62.78c0,9.96,7.38,18.34,17.51,18.34s17.59-8.46,17.59-18.34-7.39-18.34-17.59-18.34-17.51,8.38-17.51,18.34Z"/>
        <path class="cls-1" d="M452.82,80.96c-3.15,3.65-8.71,6.89-15.6,6.89-10.29,0-17.18-6.72-17.18-17.68v-31.21h9.13v28.47c0,9.29,5.48,12.37,11.54,12.37,5.15,0,11.79-3.9,11.79-11.54v-29.3h9.13v47.64h-8.8v-5.64Z"/>
        <path class="cls-1" d="M512,79.22c-4.56,5.64-11.62,9.21-19.92,9.21-14.03,0-24.65-11.54-24.65-25.56s10.62-25.73,24.65-25.73c7.97,0,14.94,3.49,19.5,8.96v-24.23h9.13v64.73h-8.71v-7.39ZM494.32,45.19c-10.04,0-17.26,8.13-17.26,17.51s7.22,17.68,17.26,17.68,17.51-8.3,17.51-17.59-7.47-17.59-17.51-17.59Z"/>
      </g>
      <path class="cls-1" d="M67.39,0h-16.43v43.69C47.17,18.95,25.8,0,0,0h0v110.88h0c25.8,0,47.17-18.95,50.95-43.69v43.69h51.55V35.11C102.5,15.72,86.78,0,67.39,0Z"/>
    </g>
  </g>
</svg>