<?xml version="1.0" encoding="UTF-8"?>
<svg id="Camada_2" data-name="Camada 2" xmlns="http://www.w3.org/2000/svg" viewBox="0 0 448.05 112.27">
  <defs>
    <style>
      .cls-1, .cls-2 {
        fill: #6645cd;
      }

      .cls-2 {
        fill-rule: evenodd;
      }
    </style>
  </defs>
  <g id="Camada_1-2" data-name="Camada 1">
    <g>
      <g>
        <path class="cls-1" d="M317.86,94.73h-1.89v-15.64h7.86c1.32,0,2.39.21,3.18.62.81.41,1.39.96,1.75,1.66.37.69.55,1.48.55,2.38v.02c0,1.49-.45,2.68-1.35,3.55-.89.86-2.26,1.29-4.11,1.29h-5.99v6.12ZM317.86,80.87v6.06h5.87c2.42,0,3.63-1.01,3.63-3.04v-.04c0-1.07-.33-1.83-.99-2.28-.66-.46-1.54-.7-2.65-.7h-5.87Z"/>
        <path class="cls-1" d="M340.82,88.22l4.35,6.51h-2.11l-4.23-6.32h-5.67v6.32h-1.89v-15.64h7.7c1.82,0,3.19.43,4.11,1.27.93.84,1.4,1.93,1.4,3.28v.02c0,1.17-.32,2.15-.94,2.94-.62.8-1.52,1.33-2.71,1.62ZM338.81,80.87h-5.65v5.77h5.65c1.11,0,2-.23,2.69-.7.68-.46,1.03-1.22,1.03-2.26v-.02c0-1.03-.34-1.75-1.03-2.16-.69-.42-1.58-.64-2.69-.64Z"/>
        <path class="cls-1" d="M355.25,94.95c-1.3,0-2.49-.2-3.57-.57-1.07-.4-1.99-.95-2.77-1.66-.78-.72-1.39-1.58-1.81-2.57-.43-.99-.64-2.06-.64-3.22v-.04c0-1.19.21-2.27.64-3.24.42-.97,1.03-1.81,1.81-2.53.78-.72,1.7-1.28,2.77-1.68,1.08-.4,2.27-.6,3.57-.6s2.51.2,3.59.6c1.08.4,2.01.96,2.79,1.68.78.71,1.38,1.56,1.79,2.53.42.98.64,2.05.64,3.24v.04c0,1.17-.22,2.24-.64,3.22-.41.99-1.01,1.84-1.79,2.57-.78.71-1.71,1.27-2.79,1.66-1.08.38-2.28.57-3.59.57ZM355.25,93.17c1.32,0,2.5-.25,3.53-.76,1.03-.52,1.83-1.24,2.42-2.18.6-.94.9-2.04.9-3.31v-.02c0-1.27-.3-2.37-.9-3.31-.59-.94-1.4-1.67-2.42-2.18-1.03-.52-2.21-.78-3.53-.78s-2.48.26-3.51.78c-1.03.51-1.84,1.23-2.42,2.16-.59.93-.88,2.04-.88,3.33v.02c0,1.26.29,2.36.88,3.31.59.93,1.4,1.66,2.42,2.18,1.04.51,2.21.76,3.51.76Z"/>
      </g>
      <g>
        <path class="cls-1" d="M24.96,100.42c-4.18,0-8.39-.35-12.63-1.04-4.24-.68-8.35-1.71-12.33-3.08l4.21-10.79c3.26,1.17,6.71,2.08,10.33,2.75s6.82,1,9.58,1,4.93-.21,6.54-.65c1.61-.44,2.42-1.3,2.42-2.58,0-.96-.45-1.68-1.35-2.17-.89-.48-2.66-.98-5.31-1.5l-8.58-1.23c-5.67-1.01-9.77-2.61-12.29-4.81-2.52-2.21-3.77-5.38-3.77-9.5,0-4.54,1.82-8,5.46-10.38,3.65-2.38,9.1-3.56,16.35-3.56,3.58,0,7.31.33,11.19,1,3.88.66,7.68,1.59,11.42,2.81l-4.92,10.58c-3.42-1.03-6.57-1.77-9.46-2.23-2.88-.46-5.54-.69-8-.69s-4.34.22-5.52.67c-1.17.43-1.75,1.13-1.75,2.08s.49,1.61,1.48,2.04c1,.43,2.75.91,5.25,1.42l8.27,1.29c5.36,1.08,9.35,2.7,11.98,4.83,2.64,2.14,3.96,5.18,3.96,9.1,0,5.17-1.92,8.9-5.75,11.19-3.82,2.29-9.41,3.44-16.77,3.44Z"/>
        <path class="cls-1" d="M105.26,78.84v.83h-37.29c.72,2.5,2.19,4.54,4.4,6.1,2.22,1.56,5.15,2.33,8.77,2.33,3.07,0,5.96-.42,8.69-1.27,2.73-.84,5.13-1.83,7.17-2.96l6.29,11.1c-2.41,1.39-5.56,2.68-9.46,3.85-3.91,1.17-8.29,1.75-13.15,1.75-5.52,0-10.34-.97-14.48-2.92-4.13-1.94-7.35-4.7-9.69-8.27-2.32-3.57-3.48-7.78-3.48-12.63v-.17c0-4.64,1.07-8.73,3.21-12.27,2.15-3.55,5.21-6.35,9.17-8.4s8.59-3.06,13.9-3.06,9.61.97,13.52,2.92c3.9,1.93,6.95,4.81,9.15,8.65,2.19,3.82,3.29,8.62,3.29,14.4ZM79.24,64.21c-2.71,0-5.05.67-7.02,2-1.96,1.32-3.32,3.18-4.08,5.58h22.58c-.61-2.25-1.93-4.07-3.96-5.48-2.02-1.4-4.52-2.1-7.52-2.1Z"/>
        <path class="cls-1" d="M126.53,99.36h-14.42v-43.81c2.61-.5,5.41-.95,8.4-1.35,2.98-.42,5.91-.75,8.77-1,2.86-.26,5.36-.4,7.5-.4,5.21,0,9.59.58,13.17,1.73,3.58,1.14,6.29,3.06,8.13,5.77s2.75,6.47,2.75,11.27v27.79h-14.4v-25.73c0-3.07-.84-5.16-2.52-6.27-1.68-1.13-4.18-1.69-7.5-1.69-1.58,0-3.27.09-5.06.27-1.79.17-3.4.39-4.81.65v32.77Z"/>
        <path class="cls-1" d="M195.56,100.65c-5.63,0-10.53-.99-14.71-2.98-4.18-1.98-7.41-4.78-9.69-8.38-2.28-3.61-3.42-7.78-3.42-12.52v-.17c0-4.79,1.08-8.96,3.25-12.5,2.18-3.55,5.3-6.32,9.35-8.31,4.05-2,8.9-3,14.52-3,1.68,0,3.4.1,5.17.31,1.76.2,3.36.45,4.79.75v-16.6h14.4v58.96c-3.83,1.43-7.59,2.53-11.27,3.29-3.67.76-7.8,1.15-12.4,1.15ZM195.56,87.8c1.53,0,3.1-.09,4.73-.27,1.64-.18,3.15-.45,4.54-.81v-19.98c-1.24-.25-2.7-.48-4.38-.71-1.68-.23-3.34-.35-4.98-.35-4.33,0-7.63.99-9.88,2.98-2.25,1.99-3.38,4.64-3.38,7.96v.17c0,3.32,1.13,5.99,3.4,8,2.28,2.02,5.59,3.02,9.94,3.02Z"/>
        <path class="cls-1" d="M278.29,78.84v.83h-37.29c.72,2.5,2.19,4.54,4.4,6.1,2.22,1.56,5.15,2.33,8.77,2.33,3.07,0,5.96-.42,8.69-1.27,2.73-.84,5.13-1.83,7.17-2.96l6.29,11.1c-2.41,1.39-5.56,2.68-9.46,3.85-3.91,1.17-8.29,1.75-13.15,1.75-5.52,0-10.34-.97-14.48-2.92-4.13-1.94-7.35-4.7-9.69-8.27-2.32-3.57-3.48-7.78-3.48-12.63v-.17c0-4.64,1.07-8.73,3.21-12.27,2.15-3.55,5.21-6.35,9.17-8.4s8.59-3.06,13.9-3.06,9.61.97,13.52,2.92c3.9,1.93,6.95,4.81,9.15,8.65,2.19,3.82,3.29,8.62,3.29,14.4ZM252.27,64.21c-2.71,0-5.05.67-7.02,2-1.96,1.32-3.32,3.18-4.08,5.58h22.58c-.61-2.25-1.93-4.07-3.96-5.48-2.02-1.4-4.52-2.1-7.52-2.1Z"/>
        <path class="cls-1" d="M299.56,99.36h-14.42v-43.04c2.09-.3,4.34-.57,6.75-.79,2.4-.23,4.75-.42,7.04-.54,2.3-.13,4.42-.21,6.35-.27,1.94-.05,3.5-.08,4.67-.08h9.13v13.33h-11.02c-.67,0-1.58.02-2.73.04-1.16.03-2.28.08-3.38.17-1.1.07-1.9.16-2.4.25v30.94Z"/>
        <path class="cls-1" d="M30.31,29.21l2.56-9.06h3.58l-5.65,18.58h-4.38l-3.35-9.56c-.31-.93-.64-1.86-.98-2.81-.35-.94-.69-1.89-1.02-2.83-.27.77-.56,1.59-.88,2.48-.31.89-.68,1.95-1.1,3.17l-3.33,9.56h-4.38l-5.69-18.58h3.54l2.58,9.02c.39,1.43.72,2.62,1,3.56.29.93.57,1.89.85,2.85l2.19-6.44,3.1-9h4.17l3.19,9.02,2.23,6.31c.22-.75.48-1.67.79-2.77.3-1.11.63-2.28.96-3.5Z"/>
        <path class="cls-1" d="M48.81,19.54c2.03,0,3.73.22,5.1.67,1.39.45,2.44,1.2,3.17,2.27.73,1.06,1.1,2.51,1.1,4.35v11.9h-3.35v-11.4c0-1.76-.5-3.01-1.5-3.73-1-.72-2.56-1.08-4.69-1.08-.96,0-2.02.06-3.17.17-1.16.11-2.27.26-3.33.44v15.6h-3.31V11.62h3.31v8.5c2.47-.39,4.69-.58,6.67-.58Z"/>
        <path class="cls-1" d="M72.14,19.54c3.01,0,5.31.54,6.9,1.63s2.38,2.89,2.38,5.4v11.77c-1.58.27-3.24.47-4.98.63-1.72.15-3.33.23-4.81.23-3.49,0-6.03-.48-7.63-1.44-1.58-.97-2.38-2.47-2.38-4.5v-.04c0-1.84.76-3.28,2.29-4.29,1.54-1.01,3.98-1.52,7.33-1.52,1.07,0,2.17.04,3.29.13,1.13.07,2.3.18,3.52.31v-.96c0-1.5-.51-2.6-1.52-3.31-1.02-.72-2.68-1.08-5-1.08-1.45,0-2.91.15-4.38.44-1.47.29-2.83.66-4.06,1.1l.63-3.1c1.11-.38,2.41-.69,3.9-.96,1.48-.28,2.99-.42,4.52-.42ZM65.05,33.29v.02c0,1,.56,1.73,1.69,2.19s2.92.69,5.38.69c1,0,2.03-.03,3.08-.1,1.05-.08,2.01-.18,2.85-.29v-5.04c-.89-.14-1.87-.24-2.94-.31-1.07-.07-2.07-.1-3-.1-2.43,0-4.22.22-5.35.65-1.14.42-1.71,1.19-1.71,2.31Z"/>
        <path class="cls-1" d="M101.09,38.73h-6.5c-2.18,0-3.77-.46-4.77-1.38-1-.93-1.5-2.48-1.5-4.65v-9.52h-3.98v-3.04h3.98v-6.21h3.33v6.21h9.4v3.04h-9.4v8.5c0,1.52.36,2.55,1.08,3.1.72.56,1.78.83,3.17.83h5.19v3.1Z"/>
        <path class="cls-1" d="M113.19,39.12c-1.54,0-3.14-.14-4.77-.4-1.64-.25-3.16-.61-4.56-1.1l1-2.88c.83.32,1.73.59,2.69.81.97.22,1.94.39,2.9.48.96.1,1.82.15,2.58.15,1.92,0,3.43-.15,4.54-.44,1.11-.3,1.67-.98,1.67-2.04,0-.5-.13-.92-.38-1.25-.24-.34-.69-.63-1.35-.85-.66-.23-1.61-.48-2.88-.73l-3.58-.56c-2.41-.47-4.13-1.11-5.17-1.94-1.03-.83-1.54-2.06-1.54-3.69s.71-2.89,2.15-3.79c1.44-.9,3.59-1.35,6.46-1.35,1.47,0,2.98.13,4.54.38,1.57.25,3,.6,4.29,1.06l-1.15,2.75c-1.27-.44-2.57-.76-3.92-.96-1.35-.19-2.58-.29-3.69-.29-1.74,0-3.06.18-3.96.52-.89.35-1.33.93-1.33,1.73,0,.75.34,1.3,1.04,1.65.69.33,1.89.67,3.58,1l3.5.6c2.39.49,4.11,1.16,5.19,2.02,1.07.85,1.6,2.06,1.6,3.65,0,1.88-.79,3.26-2.35,4.15-1.56.89-3.93,1.33-7.1,1.33Z"/>
      </g>
      <path class="cls-2" d="M420.95,30.74c-1.86-2.11-5.07-2.32-7.19-.46-2.11,1.86-2.32,5.07-.46,7.19s5.07,2.32,7.19.46c2.11-1.86,2.32-5.07.46-7.19M354,0h75.82c10.02,0,18.23,8.2,18.23,18.23v75.82c0,10.03-8.21,18.23-18.23,18.23h-43.01c-3.75-.61-7.21-2.55-9.7-5.56-10.62-12.84,7.32-36.98,21.86-53.2l2.8,2.5,4.34-.42-1.06,7.43s6.16-2.22,7.79-3.76c1.63-1.53,4.73-9.7,4.73-9.7,6.99-5.23,14.83-14.42,15.51-29.47-15.01-1.26-25.12,5.33-31.22,11.59,0,0-8.49,2.03-10.22,3.44-1.73,1.42-4.73,7.24-4.73,7.24l7.5-.09-.98,4.24,2.03,2.96c-23.11,13.79-59.67,32.15-59.67,6.65V18.23c0-10.03,8.21-18.23,18.23-18.23Z"/>
    </g>
  </g>
</svg>