<?xml version="1.0" encoding="UTF-8" standalone="no"?>
<!DOCTYPE svg PUBLIC "-//W3C//DTD SVG 1.1//EN" "http://www.w3.org/Graphics/SVG/1.1/DTD/svg11.dtd">
<svg width="100%" height="100%" viewBox="0 0 530 157" version="1.1" xmlns="http://www.w3.org/2000/svg" xmlns:xlink="http://www.w3.org/1999/xlink" xml:space="preserve" xmlns:serif="http://www.serif.com/" style="fill-rule:evenodd;clip-rule:evenodd;stroke-linejoin:round;stroke-miterlimit:2;">
    <g transform="matrix(1,0,0,1,-0.5625,-72.047851)">
        <g transform="matrix(1.333333,0,0,1.333333,0,0.000005)">
            <clipPath id="_clip1">
                <rect x="75" y="74.594" width="69.637" height="63.406"/>
            </clipPath>
            <g clip-path="url(#_clip1)">
                <path d="M109.809,74.594C128.891,74.773 144.383,89.055 144.383,106.469C144.383,123.883 128.891,137.875 109.809,137.695C90.723,137.516 75.23,123.234 75.23,105.82C75.23,88.406 90.723,74.414 109.809,74.594ZM109.809,88.922C120.125,89.02 128.5,96.742 128.5,106.156C128.5,115.57 120.125,123.137 109.809,123.039C99.492,122.941 91.113,115.219 91.113,105.805C91.113,96.391 99.492,88.828 109.809,88.922Z" style="fill:rgb(11,34,63);"/>
            </g>
        </g>
        <g transform="matrix(1.333333,0,0,1.333333,0,0.000005)">
            <path d="M16.207,139.68L0.422,139.68C0.5,157.129 15.949,171.25 35,171.25C54.051,171.25 69.504,157.129 69.582,139.68L53.797,139.68C53.723,149.137 45.336,156.781 35,156.781C24.668,156.781 16.281,149.137 16.207,139.68ZM35,89.191C45.383,89.191 53.797,96.906 53.797,106.422C53.797,108.488 53.402,110.465 52.676,112.301C50.633,117.457 45.984,121.465 40.188,122.988C38.543,123.422 36.801,123.652 35,123.652C33.203,123.652 31.461,123.422 29.812,122.988C24.02,121.465 19.371,117.457 17.328,112.301C16.602,110.465 16.207,108.488 16.207,106.422C16.207,96.906 24.621,89.191 35,89.191ZM64.488,122.988C67.719,118.168 69.582,112.492 69.582,106.422C69.582,100.07 67.543,94.152 64.031,89.191L68.41,89.191L68.41,74.723L35,74.723C29.473,74.723 24.242,75.914 19.609,78.031C8.234,83.223 0.422,93.984 0.422,106.422C0.422,112.492 2.285,118.168 5.516,122.988C6.027,123.75 6.57,124.492 7.148,125.211C9.887,128.617 13.352,131.5 17.328,133.672C22.5,136.496 28.543,138.121 35,138.121C41.457,138.121 47.504,136.496 52.676,133.672C56.652,131.5 60.117,128.617 62.852,125.211C63.434,124.492 63.977,123.75 64.488,122.988Z" style="fill:rgb(11,34,63);"/>
        </g>
        <g transform="matrix(1.333333,0,0,1.333333,198.666667,56.000005)">
            <g>
                <g>
                    <g transform="matrix(1,0,0,1,0.689239,94.457759)">
                        <g>
                            <path d="M23.188,0.469C17.457,0.469 12.926,-1.117 9.594,-4.297C6.258,-7.473 4.594,-12.398 4.594,-19.078L4.594,-82.422L20.719,-82.422L20.719,-19.078C20.719,-17.266 21.148,-15.727 22.016,-14.469C22.879,-13.219 24.645,-12.594 27.312,-12.594C27.551,-12.594 27.828,-12.613 28.141,-12.656C28.453,-12.695 28.766,-12.719 29.078,-12.719L29.078,0C27.898,0.082 26.836,0.18 25.891,0.297C24.953,0.41 24.051,0.469 23.188,0.469Z" style="fill:rgb(74,207,39);fill-rule:nonzero;"/>
                        </g>
                    </g>
                </g>
                <g>
                    <g transform="matrix(1,0,0,1,29.888712,94.457759)">
                        <g>
                            <path d="M62.984,-31.203C62.984,-28.922 62.75,-26.523 62.281,-24.016L19.312,-24.016C19.938,-20.641 21.582,-17.891 24.25,-15.766C26.914,-13.648 30.176,-12.594 34.031,-12.594C36.77,-12.594 39.359,-13.023 41.797,-13.891C44.234,-14.754 46.547,-16.52 48.734,-19.188L58.391,-11.781C54.629,-7.219 50.727,-3.938 46.688,-1.938C42.645,0.062 38.305,1.062 33.672,1.062C28.566,1.062 24.109,0.195 20.297,-1.531C16.492,-3.258 13.316,-5.594 10.766,-8.531C8.223,-11.477 6.301,-14.773 5,-18.422C3.707,-22.078 3.062,-25.828 3.062,-29.672C3.062,-33.516 3.707,-37.301 5,-41.031C6.301,-44.758 8.223,-48.113 10.766,-51.094C13.316,-54.082 16.492,-56.477 20.297,-58.281C24.109,-60.082 28.566,-60.984 33.672,-60.984C39.555,-60.984 44.695,-59.648 49.094,-56.984C53.488,-54.316 56.898,-50.742 59.328,-46.266C61.766,-41.797 62.984,-36.773 62.984,-31.203ZM33.438,-47.453C29.906,-47.453 26.723,-46.41 23.891,-44.328C21.066,-42.242 19.539,-39.242 19.312,-35.328L47.453,-35.328C47.129,-39.484 45.555,-42.539 42.734,-44.5C39.91,-46.469 36.812,-47.453 33.438,-47.453Z" style="fill:rgb(74,207,39);fill-rule:nonzero;"/>
                        </g>
                    </g>
                </g>
                <g>
                    <g transform="matrix(1,0,0,1,96.647302,94.457759)">
                        <g>
                            <path d="M17.891,0.125L-2.594,-59.812L14.594,-59.812L24.844,-25.438L27.906,-11.062L28.484,-11.062L31.438,-25.438L41.562,-59.812L58.75,-59.812L38.266,0.125L17.891,0.125Z" style="fill:rgb(74,207,39);fill-rule:nonzero;"/>
                        </g>
                    </g>
                </g>
                <g>
                    <g transform="matrix(1,0,0,1,152.927027,94.457759)">
                        <g>
                            <path d="M62.984,-31.203C62.984,-28.922 62.75,-26.523 62.281,-24.016L19.312,-24.016C19.938,-20.641 21.582,-17.891 24.25,-15.766C26.914,-13.648 30.176,-12.594 34.031,-12.594C36.77,-12.594 39.359,-13.023 41.797,-13.891C44.234,-14.754 46.547,-16.52 48.734,-19.188L58.391,-11.781C54.629,-7.219 50.727,-3.938 46.688,-1.938C42.645,0.062 38.305,1.062 33.672,1.062C28.566,1.062 24.109,0.195 20.297,-1.531C16.492,-3.258 13.316,-5.594 10.766,-8.531C8.223,-11.477 6.301,-14.773 5,-18.422C3.707,-22.078 3.062,-25.828 3.062,-29.672C3.062,-33.516 3.707,-37.301 5,-41.031C6.301,-44.758 8.223,-48.113 10.766,-51.094C13.316,-54.082 16.492,-56.477 20.297,-58.281C24.109,-60.082 28.566,-60.984 33.672,-60.984C39.555,-60.984 44.695,-59.648 49.094,-56.984C53.488,-54.316 56.898,-50.742 59.328,-46.266C61.766,-41.797 62.984,-36.773 62.984,-31.203ZM33.438,-47.453C29.906,-47.453 26.723,-46.41 23.891,-44.328C21.066,-42.242 19.539,-39.242 19.312,-35.328L47.453,-35.328C47.129,-39.484 45.555,-42.539 42.734,-44.5C39.91,-46.469 36.812,-47.453 33.438,-47.453Z" style="fill:rgb(74,207,39);fill-rule:nonzero;"/>
                        </g>
                    </g>
                </g>
                <g>
                    <g transform="matrix(1,0,0,1,219.096919,94.457759)">
                        <g>
                            <path d="M23.188,0.469C17.457,0.469 12.926,-1.117 9.594,-4.297C6.258,-7.473 4.594,-12.398 4.594,-19.078L4.594,-82.422L20.719,-82.422L20.719,-19.078C20.719,-17.266 21.148,-15.727 22.016,-14.469C22.879,-13.219 24.645,-12.594 27.312,-12.594C27.551,-12.594 27.828,-12.613 28.141,-12.656C28.453,-12.695 28.766,-12.719 29.078,-12.719L29.078,0C27.898,0.082 26.836,0.18 25.891,0.297C24.953,0.41 24.051,0.469 23.188,0.469Z" style="fill:rgb(74,207,39);fill-rule:nonzero;"/>
                        </g>
                    </g>
                </g>
            </g>
        </g>
    </g>
</svg>
