<?xml version="1.0" encoding="UTF-8" standalone="no"?><!DOCTYPE svg PUBLIC "-//W3C//DTD SVG 1.1//EN" "http://www.w3.org/Graphics/SVG/1.1/DTD/svg11.dtd"><svg width="100%" height="100%" viewBox="0 0 521 111" version="1.1" xmlns="http://www.w3.org/2000/svg" xmlns:xlink="http://www.w3.org/1999/xlink" xml:space="preserve" xmlns:serif="http://www.serif.com/" style="fill-rule:evenodd;clip-rule:evenodd;stroke-linejoin:round;stroke-miterlimit:2;"><g id="Camada_1-2"><g><g><path d="M167.72,88.6c-15.19,0 -23.32,-10.12 -23.32,-26.81l0,-37.1l9.79,0l0,39.5c0,10.29 6.56,15.44 13.53,15.44c6.97,0 13.69,-5.15 13.69,-15.44l0,-39.5l9.79,0l0,37.1c0,16.68 -8.13,26.81 -23.49,26.81l0.01,-0Z" style="fill:#fff;fill-rule:nonzero;"/><path d="M226.57,82.29c-3.15,3.32 -7.88,5.98 -13.94,5.98c-8.96,0 -15.94,-6.72 -15.94,-15.77c0,-9.05 6.8,-15.77 17.1,-15.77c5.06,0 9.13,1.58 12.04,3.82l0,-3.24c0,-9.21 -3.9,-11.95 -10.54,-11.87c-3.24,0 -5.81,0.33 -11.7,1.41l-0.42,-7.72c5.73,-1.16 8.55,-1.49 13.03,-1.49c12.86,0 18.76,6.39 18.76,16.76l0,32.2l-8.38,0l0,-4.32l-0.01,0.01Zm-0.67,-10.04c0,-5.15 -3.98,-9.46 -10.04,-9.46c-6.06,0 -9.63,4.32 -9.63,9.46c0,5.48 3.82,9.96 9.63,9.96c5.81,0 10.04,-4.4 10.04,-9.96Z" style="fill:#fff;fill-rule:nonzero;"/><path d="M275.2,80.96c-3.15,3.65 -8.71,6.89 -15.6,6.89c-10.29,0 -17.18,-6.72 -17.18,-17.68l0,-31.21l9.13,0l0,28.47c0,9.29 5.48,12.37 11.54,12.37c5.14,0 11.79,-3.9 11.79,-11.54l0,-29.3l9.13,0l0,47.64l-8.8,0l0,-5.64l-0.01,0Z" style="fill:#fff;fill-rule:nonzero;"/><path d="M337.95,35.56c-3.98,-2.57 -8.63,-3.9 -13.61,-3.9c-13.69,0 -24.48,11.2 -24.48,23.82c0,12.62 10.79,24.15 24.48,24.15c4.98,0 9.63,-1.41 13.61,-3.9l0,9.71c-4.23,2.08 -9.05,3.15 -14.11,3.15c-19.17,0 -33.86,-14.77 -33.86,-33.03c0,-18.26 14.69,-32.87 33.86,-32.87c5.06,0 9.79,1.08 14.11,3.15l0,9.72Z" style="fill:#fff;fill-rule:nonzero;"/><rect x="344.92" y="21.87" width="9.13" height="64.73" style="fill:#fff;fill-rule:nonzero;"/><path d="M414.39,62.78c0,14.28 -11.54,26.23 -27.22,26.23c-15.68,0 -27.14,-11.95 -27.14,-26.23c0,-14.28 11.54,-26.23 27.14,-26.23c15.6,0 27.22,11.95 27.22,26.23Zm-44.73,0c0,9.96 7.38,18.34 17.51,18.34c10.13,0 17.59,-8.46 17.59,-18.34c0,-9.88 -7.39,-18.34 -17.59,-18.34c-10.2,0 -17.51,8.38 -17.51,18.34Z" style="fill:#fff;fill-rule:nonzero;"/><path d="M452.82,80.96c-3.15,3.65 -8.71,6.89 -15.6,6.89c-10.29,0 -17.18,-6.72 -17.18,-17.68l0,-31.21l9.13,0l0,28.47c0,9.29 5.48,12.37 11.54,12.37c5.15,0 11.79,-3.9 11.79,-11.54l0,-29.3l9.13,0l0,47.64l-8.8,0l0,-5.64l-0.01,0Z" style="fill:#fff;fill-rule:nonzero;"/><path d="M512,79.22c-4.56,5.64 -11.62,9.21 -19.92,9.21c-14.03,0 -24.65,-11.54 -24.65,-25.56c0,-14.02 10.62,-25.73 24.65,-25.73c7.97,0 14.94,3.49 19.5,8.96l0,-24.23l9.13,0l0,64.73l-8.71,0l0,-7.39l0,0.01Zm-17.68,-34.03c-10.04,0 -17.26,8.13 -17.26,17.51c0,9.38 7.22,17.68 17.26,17.68c10.04,0 17.51,-8.3 17.51,-17.59c0,-9.29 -7.47,-17.59 -17.51,-17.59l0,-0.01Z" style="fill:#fff;fill-rule:nonzero;"/></g><path d="M67.39,0l-16.43,0l0,43.69c-3.79,-24.74 -25.16,-43.69 -50.96,-43.69l0,110.88c25.8,0 47.17,-18.95 50.95,-43.69l0,43.69l51.55,0l0,-75.77c0,-19.39 -15.72,-35.11 -35.11,-35.11Z" style="fill:#fff;fill-rule:nonzero;"/></g></g></svg>