<svg xmlns="http://www.w3.org/2000/svg" xmlns:xlink="http://www.w3.org/1999/xlink" width="575" zoomAndPan="magnify" viewBox="0 0 431.25 203.249992" height="271" preserveAspectRatio="xMidYMid meet" version="1.0"><defs><g/><clipPath id="f8b8c20c60"><path d="M 75 74.59375 L 144.636719 74.59375 L 144.636719 138 L 75 138 Z M 75 74.59375 " clip-rule="nonzero"/></clipPath><clipPath id="7d509e1c36"><path d="M 0.417969 74.59375 L 70 74.59375 L 70 171.734375 L 0.417969 171.734375 Z M 0.417969 74.59375 " clip-rule="nonzero"/></clipPath><clipPath id="681fa73d8c"><rect x="0" width="250" y="0" height="119"/></clipPath></defs><g clip-path="url(#f8b8c20c60)"><path fill="#0b223f" d="M 109.808594 74.59375 C 128.890625 74.773438 144.382812 89.054688 144.382812 106.46875 C 144.382812 123.882812 128.890625 137.875 109.808594 137.695312 C 90.722656 137.515625 75.230469 123.234375 75.230469 105.820312 C 75.230469 88.40625 90.722656 74.414062 109.808594 74.59375 Z M 109.808594 88.921875 C 120.125 89.019531 128.5 96.742188 128.5 106.15625 C 128.5 115.570312 120.125 123.136719 109.808594 123.039062 C 99.492188 122.941406 91.113281 115.21875 91.113281 105.804688 C 91.113281 96.390625 99.492188 88.828125 109.808594 88.921875 Z M 109.808594 88.921875 " fill-opacity="1" fill-rule="evenodd"/></g><g clip-path="url(#7d509e1c36)"><path fill="#0b223f" d="M 16.207031 139.679688 L 0.421875 139.679688 C 0.5 157.128906 15.949219 171.25 35 171.25 C 54.050781 171.25 69.503906 157.128906 69.582031 139.679688 L 53.796875 139.679688 C 53.722656 149.136719 45.335938 156.78125 35 156.78125 C 24.667969 156.78125 16.28125 149.136719 16.207031 139.679688 Z M 35 89.191406 C 45.382812 89.191406 53.796875 96.90625 53.796875 106.421875 C 53.796875 108.488281 53.402344 110.464844 52.675781 112.300781 C 50.632812 117.457031 45.984375 121.464844 40.1875 122.988281 C 38.542969 123.421875 36.800781 123.652344 35 123.652344 C 33.203125 123.652344 31.460938 123.421875 29.8125 122.988281 C 24.019531 121.464844 19.371094 117.457031 17.328125 112.300781 C 16.601562 110.464844 16.207031 108.488281 16.207031 106.421875 C 16.207031 96.90625 24.621094 89.191406 35 89.191406 Z M 64.488281 122.988281 C 67.71875 118.167969 69.582031 112.492188 69.582031 106.421875 C 69.582031 100.070312 67.542969 94.152344 64.03125 89.191406 L 68.410156 89.191406 L 68.410156 74.722656 L 35 74.722656 C 29.472656 74.722656 24.242188 75.914062 19.609375 78.03125 C 8.234375 83.222656 0.421875 93.984375 0.421875 106.421875 C 0.421875 112.492188 2.285156 118.167969 5.515625 122.988281 C 6.027344 123.75 6.570312 124.492188 7.148438 125.210938 C 9.886719 128.617188 13.351562 131.5 17.328125 133.671875 C 22.5 136.496094 28.542969 138.121094 35 138.121094 C 41.457031 138.121094 47.503906 136.496094 52.675781 133.671875 C 56.652344 131.5 60.117188 128.617188 62.851562 125.210938 C 63.433594 124.492188 63.976562 123.75 64.488281 122.988281 Z M 64.488281 122.988281 " fill-opacity="1" fill-rule="evenodd"/></g><g transform="matrix(1, 0, 0, 1, 149, 42)"><g clip-path="url(#681fa73d8c)"><g fill="#4acf27" fill-opacity="1"><g transform="translate(0.689239, 94.457759)"><g><path d="M 23.1875 0.46875 C 17.457031 0.46875 12.925781 -1.117188 9.59375 -4.296875 C 6.257812 -7.472656 4.59375 -12.398438 4.59375 -19.078125 L 4.59375 -82.421875 L 20.71875 -82.421875 L 20.71875 -19.078125 C 20.71875 -17.265625 21.148438 -15.726562 22.015625 -14.46875 C 22.878906 -13.21875 24.644531 -12.59375 27.3125 -12.59375 C 27.550781 -12.59375 27.828125 -12.613281 28.140625 -12.65625 C 28.453125 -12.695312 28.765625 -12.71875 29.078125 -12.71875 L 29.078125 0 C 27.898438 0.0820312 26.835938 0.179688 25.890625 0.296875 C 24.953125 0.410156 24.050781 0.46875 23.1875 0.46875 Z M 23.1875 0.46875 "/></g></g></g><g fill="#4acf27" fill-opacity="1"><g transform="translate(29.888712, 94.457759)"><g><path d="M 62.984375 -31.203125 C 62.984375 -28.921875 62.75 -26.523438 62.28125 -24.015625 L 19.3125 -24.015625 C 19.9375 -20.640625 21.582031 -17.890625 24.25 -15.765625 C 26.914062 -13.648438 30.175781 -12.59375 34.03125 -12.59375 C 36.769531 -12.59375 39.359375 -13.023438 41.796875 -13.890625 C 44.234375 -14.753906 46.546875 -16.519531 48.734375 -19.1875 L 58.390625 -11.78125 C 54.628906 -7.21875 50.726562 -3.9375 46.6875 -1.9375 C 42.644531 0.0625 38.304688 1.0625 33.671875 1.0625 C 28.566406 1.0625 24.109375 0.195312 20.296875 -1.53125 C 16.492188 -3.257812 13.316406 -5.59375 10.765625 -8.53125 C 8.222656 -11.476562 6.300781 -14.773438 5 -18.421875 C 3.707031 -22.078125 3.0625 -25.828125 3.0625 -29.671875 C 3.0625 -33.515625 3.707031 -37.300781 5 -41.03125 C 6.300781 -44.757812 8.222656 -48.113281 10.765625 -51.09375 C 13.316406 -54.082031 16.492188 -56.476562 20.296875 -58.28125 C 24.109375 -60.082031 28.566406 -60.984375 33.671875 -60.984375 C 39.554688 -60.984375 44.695312 -59.648438 49.09375 -56.984375 C 53.488281 -54.316406 56.898438 -50.742188 59.328125 -46.265625 C 61.765625 -41.796875 62.984375 -36.773438 62.984375 -31.203125 Z M 33.4375 -47.453125 C 29.90625 -47.453125 26.722656 -46.410156 23.890625 -44.328125 C 21.066406 -42.242188 19.539062 -39.242188 19.3125 -35.328125 L 47.453125 -35.328125 C 47.128906 -39.484375 45.554688 -42.539062 42.734375 -44.5 C 39.910156 -46.46875 36.8125 -47.453125 33.4375 -47.453125 Z M 33.4375 -47.453125 "/></g></g></g><g fill="#4acf27" fill-opacity="1"><g transform="translate(96.647302, 94.457759)"><g><path d="M 17.890625 0.125 L -2.59375 -59.8125 L 14.59375 -59.8125 L 24.84375 -25.4375 L 27.90625 -11.0625 L 28.484375 -11.0625 L 31.4375 -25.4375 L 41.5625 -59.8125 L 58.75 -59.8125 L 38.265625 0.125 Z M 17.890625 0.125 "/></g></g></g><g fill="#4acf27" fill-opacity="1"><g transform="translate(152.927027, 94.457759)"><g><path d="M 62.984375 -31.203125 C 62.984375 -28.921875 62.75 -26.523438 62.28125 -24.015625 L 19.3125 -24.015625 C 19.9375 -20.640625 21.582031 -17.890625 24.25 -15.765625 C 26.914062 -13.648438 30.175781 -12.59375 34.03125 -12.59375 C 36.769531 -12.59375 39.359375 -13.023438 41.796875 -13.890625 C 44.234375 -14.753906 46.546875 -16.519531 48.734375 -19.1875 L 58.390625 -11.78125 C 54.628906 -7.21875 50.726562 -3.9375 46.6875 -1.9375 C 42.644531 0.0625 38.304688 1.0625 33.671875 1.0625 C 28.566406 1.0625 24.109375 0.195312 20.296875 -1.53125 C 16.492188 -3.257812 13.316406 -5.59375 10.765625 -8.53125 C 8.222656 -11.476562 6.300781 -14.773438 5 -18.421875 C 3.707031 -22.078125 3.0625 -25.828125 3.0625 -29.671875 C 3.0625 -33.515625 3.707031 -37.300781 5 -41.03125 C 6.300781 -44.757812 8.222656 -48.113281 10.765625 -51.09375 C 13.316406 -54.082031 16.492188 -56.476562 20.296875 -58.28125 C 24.109375 -60.082031 28.566406 -60.984375 33.671875 -60.984375 C 39.554688 -60.984375 44.695312 -59.648438 49.09375 -56.984375 C 53.488281 -54.316406 56.898438 -50.742188 59.328125 -46.265625 C 61.765625 -41.796875 62.984375 -36.773438 62.984375 -31.203125 Z M 33.4375 -47.453125 C 29.90625 -47.453125 26.722656 -46.410156 23.890625 -44.328125 C 21.066406 -42.242188 19.539062 -39.242188 19.3125 -35.328125 L 47.453125 -35.328125 C 47.128906 -39.484375 45.554688 -42.539062 42.734375 -44.5 C 39.910156 -46.46875 36.8125 -47.453125 33.4375 -47.453125 Z M 33.4375 -47.453125 "/></g></g></g><g fill="#4acf27" fill-opacity="1"><g transform="translate(219.096919, 94.457759)"><g><path d="M 23.1875 0.46875 C 17.457031 0.46875 12.925781 -1.117188 9.59375 -4.296875 C 6.257812 -7.472656 4.59375 -12.398438 4.59375 -19.078125 L 4.59375 -82.421875 L 20.71875 -82.421875 L 20.71875 -19.078125 C 20.71875 -17.265625 21.148438 -15.726562 22.015625 -14.46875 C 22.878906 -13.21875 24.644531 -12.59375 27.3125 -12.59375 C 27.550781 -12.59375 27.828125 -12.613281 28.140625 -12.65625 C 28.453125 -12.695312 28.765625 -12.71875 29.078125 -12.71875 L 29.078125 0 C 27.898438 0.0820312 26.835938 0.179688 25.890625 0.296875 C 24.953125 0.410156 24.050781 0.46875 23.1875 0.46875 Z M 23.1875 0.46875 "/></g></g></g></g></g></svg>